# xmcd CD database file
# Copyright (C) 1993-1998 Ti Kan
#
# Track frame offsets:
#	150
#	10907
#	24717
#	36520
#	54107
#	66105
#	81530
#	90855
#	103917
#	111740
#	126075
#	136487
#	149815
#	164352
#	176335
#
# Disc length: 2433 seconds
#
# Revision: 0
# Processed by: cddbd v1.4b41PL1 Copyright (c) Steve Scherf et al.
# Submitted via: CDmax 1.5
#
DISCID=d8097f0f
DTITLE=ERROL DIXON - Mr. Boogie Woogie in Basel´s Atlantis
DYEAR=1900
DGENRE=
TTITLE0=Jumping the Boogie
TTITLE1=Love Blues
TTITLE2=Jump and Shout
TTITLE3=When the Saints go marching in
TTITLE4=Beautiful Day
TTITLE5=My Big Mistake
TTITLE6=Vanessa Boogie
TTITLE7=Midnight
TTITLE8=Coriene Corina
TTITLE9=Amen
TTITLE10=Blue Berry Hill
TTITLE11=Mojo working
TTITLE12=Hey BaBaReBa
TTITLE13=All I need is love
TTITLE14=Bye Bye Blues
EXTD=
EXTT0=
EXTT1=
EXTT2=
EXTT3=
EXTT4=
EXTT5=
EXTT6=
EXTT7=
EXTT8=
EXTT9=
EXTT10=
EXTT11=
EXTT12=
EXTT13=
EXTT14=
PLAYORDER=
